<mxfile host="app.diagrams.net" modified="2021-07-17T00:10:15.546Z" agent="5.0 (Macintosh; Intel Mac OS X 10_15_7) AppleWebKit/605.1.15 (KHTML, like Gecko) Version/14.1.1 Safari/605.1.15" etag="AHnnlOTWt1jYGRutZgUB" version="14.8.6" type="github">
  <diagram id="c3BmcY3r0Z-4gi71um3W" name="Page-1">
    <mxGraphModel dx="829" dy="602" grid="1" gridSize="10" guides="1" tooltips="1" connect="1" arrows="1" fold="1" page="1" pageScale="1" pageWidth="850" pageHeight="1100" math="0" shadow="0">
      <root>
        <mxCell id="0" />
        <mxCell id="1" parent="0" />
        <mxCell id="Ft4-OXkU_Us3fp8Sp3cz-42" value="" style="shape=table;startSize=0;container=1;collapsible=0;childLayout=tableLayout;" vertex="1" parent="1">
          <mxGeometry x="50" y="40" width="250" height="120.00000000000011" as="geometry" />
        </mxCell>
        <mxCell id="Ft4-OXkU_Us3fp8Sp3cz-43" value="" style="shape=partialRectangle;collapsible=0;dropTarget=0;pointerEvents=0;fillColor=none;top=0;left=0;bottom=0;right=0;points=[[0,0.5],[1,0.5]];portConstraint=eastwest;" vertex="1" parent="Ft4-OXkU_Us3fp8Sp3cz-42">
          <mxGeometry width="250" height="40" as="geometry" />
        </mxCell>
        <mxCell id="Ft4-OXkU_Us3fp8Sp3cz-44" value="" style="shape=partialRectangle;html=1;whiteSpace=wrap;connectable=0;overflow=hidden;fillColor=none;top=0;left=0;bottom=0;right=0;" vertex="1" parent="Ft4-OXkU_Us3fp8Sp3cz-43">
          <mxGeometry width="60" height="40" as="geometry" />
        </mxCell>
        <mxCell id="Ft4-OXkU_Us3fp8Sp3cz-45" value="Patients" style="shape=partialRectangle;html=1;whiteSpace=wrap;connectable=0;overflow=hidden;fillColor=none;top=0;left=0;bottom=0;right=0;" vertex="1" parent="Ft4-OXkU_Us3fp8Sp3cz-43">
          <mxGeometry x="60" width="190" height="40" as="geometry" />
        </mxCell>
        <mxCell id="Ft4-OXkU_Us3fp8Sp3cz-46" value="" style="shape=partialRectangle;collapsible=0;dropTarget=0;pointerEvents=0;fillColor=none;top=0;left=0;bottom=0;right=0;points=[[0,0.5],[1,0.5]];portConstraint=eastwest;" vertex="1" parent="Ft4-OXkU_Us3fp8Sp3cz-42">
          <mxGeometry y="40" width="250" height="40" as="geometry" />
        </mxCell>
        <mxCell id="Ft4-OXkU_Us3fp8Sp3cz-47" value="" style="shape=partialRectangle;html=1;whiteSpace=wrap;connectable=0;overflow=hidden;fillColor=none;top=0;left=0;bottom=0;right=0;" vertex="1" parent="Ft4-OXkU_Us3fp8Sp3cz-46">
          <mxGeometry width="60" height="40" as="geometry" />
        </mxCell>
        <mxCell id="Ft4-OXkU_Us3fp8Sp3cz-48" value="" style="shape=partialRectangle;html=1;whiteSpace=wrap;connectable=0;overflow=hidden;fillColor=none;top=0;left=0;bottom=0;right=0;" vertex="1" parent="Ft4-OXkU_Us3fp8Sp3cz-46">
          <mxGeometry x="60" width="190" height="40" as="geometry" />
        </mxCell>
        <mxCell id="Ft4-OXkU_Us3fp8Sp3cz-49" value="" style="shape=partialRectangle;collapsible=0;dropTarget=0;pointerEvents=0;fillColor=none;top=0;left=0;bottom=0;right=0;points=[[0,0.5],[1,0.5]];portConstraint=eastwest;" vertex="1" parent="Ft4-OXkU_Us3fp8Sp3cz-42">
          <mxGeometry y="80" width="250" height="40" as="geometry" />
        </mxCell>
        <mxCell id="Ft4-OXkU_Us3fp8Sp3cz-50" value="" style="shape=partialRectangle;html=1;whiteSpace=wrap;connectable=0;overflow=hidden;fillColor=none;top=0;left=0;bottom=0;right=0;" vertex="1" parent="Ft4-OXkU_Us3fp8Sp3cz-49">
          <mxGeometry width="60" height="40" as="geometry" />
        </mxCell>
        <mxCell id="Ft4-OXkU_Us3fp8Sp3cz-51" value="" style="shape=partialRectangle;html=1;whiteSpace=wrap;connectable=0;overflow=hidden;fillColor=none;top=0;left=0;bottom=0;right=0;" vertex="1" parent="Ft4-OXkU_Us3fp8Sp3cz-49">
          <mxGeometry x="60" width="190" height="40" as="geometry" />
        </mxCell>
        <mxCell id="Ft4-OXkU_Us3fp8Sp3cz-52" value="" style="shape=table;startSize=0;container=1;collapsible=0;childLayout=tableLayout;" vertex="1" parent="1">
          <mxGeometry x="425" y="40" width="275.0000000000002" height="120" as="geometry" />
        </mxCell>
        <mxCell id="Ft4-OXkU_Us3fp8Sp3cz-53" value="" style="shape=partialRectangle;collapsible=0;dropTarget=0;pointerEvents=0;fillColor=none;top=0;left=0;bottom=0;right=0;points=[[0,0.5],[1,0.5]];portConstraint=eastwest;" vertex="1" parent="Ft4-OXkU_Us3fp8Sp3cz-52">
          <mxGeometry width="275.0000000000002" height="40" as="geometry" />
        </mxCell>
        <mxCell id="Ft4-OXkU_Us3fp8Sp3cz-54" value="" style="shape=partialRectangle;html=1;whiteSpace=wrap;connectable=0;overflow=hidden;fillColor=none;top=0;left=0;bottom=0;right=0;" vertex="1" parent="Ft4-OXkU_Us3fp8Sp3cz-53">
          <mxGeometry width="60" height="40" as="geometry" />
        </mxCell>
        <mxCell id="Ft4-OXkU_Us3fp8Sp3cz-55" value="Physicians" style="shape=partialRectangle;html=1;whiteSpace=wrap;connectable=0;overflow=hidden;fillColor=none;top=0;left=0;bottom=0;right=0;" vertex="1" parent="Ft4-OXkU_Us3fp8Sp3cz-53">
          <mxGeometry x="60" width="215" height="40" as="geometry" />
        </mxCell>
        <mxCell id="Ft4-OXkU_Us3fp8Sp3cz-56" value="" style="shape=partialRectangle;collapsible=0;dropTarget=0;pointerEvents=0;fillColor=none;top=0;left=0;bottom=0;right=0;points=[[0,0.5],[1,0.5]];portConstraint=eastwest;" vertex="1" parent="Ft4-OXkU_Us3fp8Sp3cz-52">
          <mxGeometry y="40" width="275.0000000000002" height="40" as="geometry" />
        </mxCell>
        <mxCell id="Ft4-OXkU_Us3fp8Sp3cz-57" value="" style="shape=partialRectangle;html=1;whiteSpace=wrap;connectable=0;overflow=hidden;fillColor=none;top=0;left=0;bottom=0;right=0;" vertex="1" parent="Ft4-OXkU_Us3fp8Sp3cz-56">
          <mxGeometry width="60" height="40" as="geometry" />
        </mxCell>
        <mxCell id="Ft4-OXkU_Us3fp8Sp3cz-58" value="" style="shape=partialRectangle;html=1;whiteSpace=wrap;connectable=0;overflow=hidden;fillColor=none;top=0;left=0;bottom=0;right=0;" vertex="1" parent="Ft4-OXkU_Us3fp8Sp3cz-56">
          <mxGeometry x="60" width="215" height="40" as="geometry" />
        </mxCell>
        <mxCell id="Ft4-OXkU_Us3fp8Sp3cz-59" value="" style="shape=partialRectangle;collapsible=0;dropTarget=0;pointerEvents=0;fillColor=none;top=0;left=0;bottom=0;right=0;points=[[0,0.5],[1,0.5]];portConstraint=eastwest;" vertex="1" parent="Ft4-OXkU_Us3fp8Sp3cz-52">
          <mxGeometry y="80" width="275.0000000000002" height="40" as="geometry" />
        </mxCell>
        <mxCell id="Ft4-OXkU_Us3fp8Sp3cz-60" value="" style="shape=partialRectangle;html=1;whiteSpace=wrap;connectable=0;overflow=hidden;fillColor=none;top=0;left=0;bottom=0;right=0;" vertex="1" parent="Ft4-OXkU_Us3fp8Sp3cz-59">
          <mxGeometry width="60" height="40" as="geometry" />
        </mxCell>
        <mxCell id="Ft4-OXkU_Us3fp8Sp3cz-61" value="" style="shape=partialRectangle;html=1;whiteSpace=wrap;connectable=0;overflow=hidden;fillColor=none;top=0;left=0;bottom=0;right=0;" vertex="1" parent="Ft4-OXkU_Us3fp8Sp3cz-59">
          <mxGeometry x="60" width="215" height="40" as="geometry" />
        </mxCell>
        <mxCell id="Ft4-OXkU_Us3fp8Sp3cz-62" value="" style="shape=table;startSize=0;container=1;collapsible=0;childLayout=tableLayout;" vertex="1" parent="1">
          <mxGeometry x="50" y="220" width="250" height="120" as="geometry" />
        </mxCell>
        <mxCell id="Ft4-OXkU_Us3fp8Sp3cz-63" value="" style="shape=partialRectangle;collapsible=0;dropTarget=0;pointerEvents=0;fillColor=none;top=0;left=0;bottom=0;right=0;points=[[0,0.5],[1,0.5]];portConstraint=eastwest;" vertex="1" parent="Ft4-OXkU_Us3fp8Sp3cz-62">
          <mxGeometry width="250" height="40" as="geometry" />
        </mxCell>
        <mxCell id="Ft4-OXkU_Us3fp8Sp3cz-64" value="" style="shape=partialRectangle;html=1;whiteSpace=wrap;connectable=0;overflow=hidden;fillColor=none;top=0;left=0;bottom=0;right=0;" vertex="1" parent="Ft4-OXkU_Us3fp8Sp3cz-63">
          <mxGeometry width="60" height="40" as="geometry" />
        </mxCell>
        <mxCell id="Ft4-OXkU_Us3fp8Sp3cz-65" value="Conditions" style="shape=partialRectangle;html=1;whiteSpace=wrap;connectable=0;overflow=hidden;fillColor=none;top=0;left=0;bottom=0;right=0;" vertex="1" parent="Ft4-OXkU_Us3fp8Sp3cz-63">
          <mxGeometry x="60" width="190" height="40" as="geometry" />
        </mxCell>
        <mxCell id="Ft4-OXkU_Us3fp8Sp3cz-66" value="" style="shape=partialRectangle;collapsible=0;dropTarget=0;pointerEvents=0;fillColor=none;top=0;left=0;bottom=0;right=0;points=[[0,0.5],[1,0.5]];portConstraint=eastwest;" vertex="1" parent="Ft4-OXkU_Us3fp8Sp3cz-62">
          <mxGeometry y="40" width="250" height="40" as="geometry" />
        </mxCell>
        <mxCell id="Ft4-OXkU_Us3fp8Sp3cz-67" value="" style="shape=partialRectangle;html=1;whiteSpace=wrap;connectable=0;overflow=hidden;fillColor=none;top=0;left=0;bottom=0;right=0;" vertex="1" parent="Ft4-OXkU_Us3fp8Sp3cz-66">
          <mxGeometry width="60" height="40" as="geometry" />
        </mxCell>
        <mxCell id="Ft4-OXkU_Us3fp8Sp3cz-68" value="" style="shape=partialRectangle;html=1;whiteSpace=wrap;connectable=0;overflow=hidden;fillColor=none;top=0;left=0;bottom=0;right=0;" vertex="1" parent="Ft4-OXkU_Us3fp8Sp3cz-66">
          <mxGeometry x="60" width="190" height="40" as="geometry" />
        </mxCell>
        <mxCell id="Ft4-OXkU_Us3fp8Sp3cz-69" value="" style="shape=partialRectangle;collapsible=0;dropTarget=0;pointerEvents=0;fillColor=none;top=0;left=0;bottom=0;right=0;points=[[0,0.5],[1,0.5]];portConstraint=eastwest;" vertex="1" parent="Ft4-OXkU_Us3fp8Sp3cz-62">
          <mxGeometry y="80" width="250" height="40" as="geometry" />
        </mxCell>
        <mxCell id="Ft4-OXkU_Us3fp8Sp3cz-70" value="" style="shape=partialRectangle;html=1;whiteSpace=wrap;connectable=0;overflow=hidden;fillColor=none;top=0;left=0;bottom=0;right=0;" vertex="1" parent="Ft4-OXkU_Us3fp8Sp3cz-69">
          <mxGeometry width="60" height="40" as="geometry" />
        </mxCell>
        <mxCell id="Ft4-OXkU_Us3fp8Sp3cz-71" value="" style="shape=partialRectangle;html=1;whiteSpace=wrap;connectable=0;overflow=hidden;fillColor=none;top=0;left=0;bottom=0;right=0;" vertex="1" parent="Ft4-OXkU_Us3fp8Sp3cz-69">
          <mxGeometry x="60" width="190" height="40" as="geometry" />
        </mxCell>
        <mxCell id="Ft4-OXkU_Us3fp8Sp3cz-72" value="" style="shape=table;startSize=0;container=1;collapsible=0;childLayout=tableLayout;" vertex="1" parent="1">
          <mxGeometry x="425" y="220" width="275.0000000000002" height="120" as="geometry" />
        </mxCell>
        <mxCell id="Ft4-OXkU_Us3fp8Sp3cz-73" value="" style="shape=partialRectangle;collapsible=0;dropTarget=0;pointerEvents=0;fillColor=none;top=0;left=0;bottom=0;right=0;points=[[0,0.5],[1,0.5]];portConstraint=eastwest;" vertex="1" parent="Ft4-OXkU_Us3fp8Sp3cz-72">
          <mxGeometry width="275.0000000000002" height="40" as="geometry" />
        </mxCell>
        <mxCell id="Ft4-OXkU_Us3fp8Sp3cz-74" value="" style="shape=partialRectangle;html=1;whiteSpace=wrap;connectable=0;overflow=hidden;fillColor=none;top=0;left=0;bottom=0;right=0;" vertex="1" parent="Ft4-OXkU_Us3fp8Sp3cz-73">
          <mxGeometry width="60" height="40" as="geometry" />
        </mxCell>
        <mxCell id="Ft4-OXkU_Us3fp8Sp3cz-75" value="Diagnosis" style="shape=partialRectangle;html=1;whiteSpace=wrap;connectable=0;overflow=hidden;fillColor=none;top=0;left=0;bottom=0;right=0;" vertex="1" parent="Ft4-OXkU_Us3fp8Sp3cz-73">
          <mxGeometry x="60" width="215" height="40" as="geometry" />
        </mxCell>
        <mxCell id="Ft4-OXkU_Us3fp8Sp3cz-76" value="" style="shape=partialRectangle;collapsible=0;dropTarget=0;pointerEvents=0;fillColor=none;top=0;left=0;bottom=0;right=0;points=[[0,0.5],[1,0.5]];portConstraint=eastwest;" vertex="1" parent="Ft4-OXkU_Us3fp8Sp3cz-72">
          <mxGeometry y="40" width="275.0000000000002" height="40" as="geometry" />
        </mxCell>
        <mxCell id="Ft4-OXkU_Us3fp8Sp3cz-77" value="" style="shape=partialRectangle;html=1;whiteSpace=wrap;connectable=0;overflow=hidden;fillColor=none;top=0;left=0;bottom=0;right=0;" vertex="1" parent="Ft4-OXkU_Us3fp8Sp3cz-76">
          <mxGeometry width="60" height="40" as="geometry" />
        </mxCell>
        <mxCell id="Ft4-OXkU_Us3fp8Sp3cz-78" value="" style="shape=partialRectangle;html=1;whiteSpace=wrap;connectable=0;overflow=hidden;fillColor=none;top=0;left=0;bottom=0;right=0;" vertex="1" parent="Ft4-OXkU_Us3fp8Sp3cz-76">
          <mxGeometry x="60" width="215" height="40" as="geometry" />
        </mxCell>
        <mxCell id="Ft4-OXkU_Us3fp8Sp3cz-79" value="" style="shape=partialRectangle;collapsible=0;dropTarget=0;pointerEvents=0;fillColor=none;top=0;left=0;bottom=0;right=0;points=[[0,0.5],[1,0.5]];portConstraint=eastwest;" vertex="1" parent="Ft4-OXkU_Us3fp8Sp3cz-72">
          <mxGeometry y="80" width="275.0000000000002" height="40" as="geometry" />
        </mxCell>
        <mxCell id="Ft4-OXkU_Us3fp8Sp3cz-80" value="" style="shape=partialRectangle;html=1;whiteSpace=wrap;connectable=0;overflow=hidden;fillColor=none;top=0;left=0;bottom=0;right=0;" vertex="1" parent="Ft4-OXkU_Us3fp8Sp3cz-79">
          <mxGeometry width="60" height="40" as="geometry" />
        </mxCell>
        <mxCell id="Ft4-OXkU_Us3fp8Sp3cz-81" value="" style="shape=partialRectangle;html=1;whiteSpace=wrap;connectable=0;overflow=hidden;fillColor=none;top=0;left=0;bottom=0;right=0;" vertex="1" parent="Ft4-OXkU_Us3fp8Sp3cz-79">
          <mxGeometry x="60" width="215" height="40" as="geometry" />
        </mxCell>
        <mxCell id="Ft4-OXkU_Us3fp8Sp3cz-94" style="edgeStyle=orthogonalEdgeStyle;rounded=0;orthogonalLoop=1;jettySize=auto;html=1;exitX=1;exitY=0.5;exitDx=0;exitDy=0;entryX=0;entryY=0.5;entryDx=0;entryDy=0;" edge="1" parent="1" source="Ft4-OXkU_Us3fp8Sp3cz-46" target="Ft4-OXkU_Us3fp8Sp3cz-56">
          <mxGeometry relative="1" as="geometry" />
        </mxCell>
        <mxCell id="Ft4-OXkU_Us3fp8Sp3cz-95" style="edgeStyle=orthogonalEdgeStyle;rounded=0;orthogonalLoop=1;jettySize=auto;html=1;exitX=1;exitY=0.5;exitDx=0;exitDy=0;entryX=0;entryY=0.5;entryDx=0;entryDy=0;" edge="1" parent="1" source="Ft4-OXkU_Us3fp8Sp3cz-49" target="Ft4-OXkU_Us3fp8Sp3cz-76">
          <mxGeometry relative="1" as="geometry" />
        </mxCell>
        <mxCell id="Ft4-OXkU_Us3fp8Sp3cz-96" style="edgeStyle=orthogonalEdgeStyle;rounded=0;orthogonalLoop=1;jettySize=auto;html=1;exitX=1;exitY=0.5;exitDx=0;exitDy=0;entryX=0;entryY=0.5;entryDx=0;entryDy=0;" edge="1" parent="1" source="Ft4-OXkU_Us3fp8Sp3cz-69" target="Ft4-OXkU_Us3fp8Sp3cz-79">
          <mxGeometry relative="1" as="geometry" />
        </mxCell>
      </root>
    </mxGraphModel>
  </diagram>
</mxfile>
